# MagicaVoxel @ Ephtracy

# group
o 

# material
mtllib Car.mtl
usemtl palette

# normals
vn -1 0 0
vn 1 0 0
vn 0 0 1
vn 0 0 -1
vn 0 -1 0
vn 0 1 0

# texcoords
vt 0.0410156 0.5
vt 0.845703 0.5
vt 0.974609 0.5
vt 0.986328 0.5
vt 0.994141 0.5

# verts
v -1.8 0.5 1.3
v -1.8 0.5 1.1
v -1.8 0.5 0.9
v -1.8 0.5 0.4
v -1.8 0.5 0.2
v -1.8 0.5 0
v -1.8 0.6 1.1
v -1.8 0.6 0.9
v -1.8 0.6 0.4
v -1.8 0.6 0.2
v -1.8 0.9 1.2
v -1.8 0.9 1
v -1.8 0.9 0.3
v -1.8 0.9 0.1
v -1.8 1 1.2
v -1.8 1 1
v -1.8 1 0.3
v -1.8 1 0.1
v -1.8 1.2 1.3
v -1.8 1.2 1.2
v -1.8 1.2 1.1
v -1.8 1.2 0.2
v -1.8 1.2 0.1
v -1.8 1.2 0
v -1.8 1.4 1.3
v -1.8 1.4 1.2
v -1.8 1.4 1.1
v -1.8 1.4 0.2
v -1.8 1.4 0.1
v -1.8 1.4 0
v -1.8 1.5 1.3
v -1.8 1.5 0
v -0.8 0.5 1.3
v -0.8 0.5 0
v -0.8 1 1.3
v -0.8 1 0
v -0.7 1.2 1.3
v -0.7 1.2 0
v -0.7 1.5 1.3
v -0.7 1.5 0
v -0.6 1.5 1.3
v -0.6 1.5 0
v -0.6 1.6 1.3
v -0.6 1.6 0
v 0.6 1.1 0
v 0.6 1.1 -0.2
v 0.6 1.3 0
v 0.6 1.3 -0.2
v 0.7 1.1 1.5
v 0.7 1.1 1.3
v 0.7 1.3 1.5
v 0.7 1.3 1.3
v 1.7 0.5 1.3
v 1.7 0.5 0
v 1.7 1 1.3
v 1.7 1 0
v -1.7 1.2 1.2
v -1.7 1.2 1.1
v -1.7 1.2 0.2
v -1.7 1.2 0.1
v -1.7 1.4 1.3
v -1.7 1.4 1.2
v -1.7 1.4 1.1
v -1.7 1.4 0.2
v -1.7 1.4 0.1
v -1.7 1.4 0
v -1.7 1.5 1.3
v -1.7 1.5 0
v -1.4 0.5 1.3
v -1.4 0.5 0
v -1.4 1 1.3
v -1.4 1 0
v 0.7 1.1 0
v 0.7 1.1 -0.2
v 0.7 1.3 0
v 0.7 1.3 -0.2
v 0.8 1.1 1.5
v 0.8 1.1 1.3
v 0.8 1.3 1.5
v 0.8 1.3 1.3
v 0.8 1.5 1.3
v 0.8 1.5 0
v 0.8 1.6 1.3
v 0.8 1.6 0
v 0.9 1.3 1.3
v 0.9 1.3 0
v 0.9 1.5 1.3
v 0.9 1.5 0
v 1 1.2 1.3
v 1 1.2 0
v 1 1.3 1.3
v 1 1.3 0
v 1.1 0.5 1.3
v 1.1 0.5 0
v 1.1 1 1.3
v 1.1 1 0
v 2 0.5 1.3
v 2 0.5 0
v 2 0.6 0.9
v 2 0.6 0.4
v 2 0.8 0.9
v 2 0.8 0.4
v 2 0.9 1.2
v 2 0.9 1
v 2 0.9 0.3
v 2 0.9 0.1
v 2 1 1.2
v 2 1 1
v 2 1 0.3
v 2 1 0.1
v 2 1.2 1.3
v 2 1.2 0
v 0.7 1.1 1.5
v 0.7 1.3 1.5
v 0.8 1.1 1.5
v 0.8 1.3 1.5
v -1.8 0.5 1.3
v -1.8 1.2 1.3
v -1.8 1.4 1.3
v -1.8 1.5 1.3
v -1.7 1.4 1.3
v -1.7 1.5 1.3
v -1.4 0.5 1.3
v -1.4 1 1.3
v -0.8 0.5 1.3
v -0.8 1 1.3
v -0.7 1.2 1.3
v -0.7 1.5 1.3
v -0.6 1.5 1.3
v -0.6 1.6 1.3
v 0.7 1.1 1.3
v 0.7 1.3 1.3
v 0.8 1.1 1.3
v 0.8 1.3 1.3
v 0.8 1.5 1.3
v 0.8 1.6 1.3
v 0.9 1.3 1.3
v 0.9 1.5 1.3
v 1 1.2 1.3
v 1 1.3 1.3
v 1.1 0.5 1.3
v 1.1 1 1.3
v 1.7 0.5 1.3
v 1.7 1 1.3
v 2 0.5 1.3
v 2 1.2 1.3
v -1.8 1.2 1.2
v -1.8 1.4 1.2
v -1.7 1.2 1.2
v -1.7 1.4 1.2
v -1.8 1.2 0.2
v -1.8 1.4 0.2
v -1.7 1.2 0.2
v -1.7 1.4 0.2
v -1.8 1.2 1.1
v -1.8 1.4 1.1
v -1.7 1.2 1.1
v -1.7 1.4 1.1
v -1.8 1.2 0.1
v -1.8 1.4 0.1
v -1.7 1.2 0.1
v -1.7 1.4 0.1
v -1.8 0.5 0
v -1.8 1.2 0
v -1.8 1.4 0
v -1.8 1.5 0
v -1.7 1.4 0
v -1.7 1.5 0
v -1.4 0.5 0
v -1.4 1 0
v -0.8 0.5 0
v -0.8 1 0
v -0.7 1.2 0
v -0.7 1.5 0
v -0.6 1.5 0
v -0.6 1.6 0
v 0.6 1.1 0
v 0.6 1.3 0
v 0.7 1.1 0
v 0.7 1.3 0
v 0.8 1.5 0
v 0.8 1.6 0
v 0.9 1.3 0
v 0.9 1.5 0
v 1 1.2 0
v 1 1.3 0
v 1.1 0.5 0
v 1.1 1 0
v 1.7 0.5 0
v 1.7 1 0
v 2 0.5 0
v 2 1.2 0
v 0.6 1.1 -0.2
v 0.6 1.3 -0.2
v 0.7 1.1 -0.2
v 0.7 1.3 -0.2
v -1.8 0.5 1.3
v -1.4 0.5 1.3
v -0.8 0.5 1.3
v 1.1 0.5 1.3
v 1.7 0.5 1.3
v 2 0.5 1.3
v -1.8 0.5 1.1
v -1.7 0.5 1.1
v -1.8 0.5 0.9
v -1.7 0.5 0.9
v -1.8 0.5 0.4
v -1.7 0.5 0.4
v -1.8 0.5 0.2
v -1.7 0.5 0.2
v -1.8 0.5 0
v -1.4 0.5 0
v -0.8 0.5 0
v 1.1 0.5 0
v 1.7 0.5 0
v 2 0.5 0
v -1.4 1 1.3
v -0.8 1 1.3
v 1.1 1 1.3
v 1.7 1 1.3
v -1.4 1 0
v -0.8 1 0
v 1.1 1 0
v 1.7 1 0
v 0.7 1.1 1.5
v 0.8 1.1 1.5
v 0.7 1.1 1.3
v 0.8 1.1 1.3
v 0.6 1.1 0
v 0.7 1.1 0
v 0.6 1.1 -0.2
v 0.7 1.1 -0.2
v -1.8 1.4 1.3
v -1.7 1.4 1.3
v -1.8 1.4 1.2
v -1.7 1.4 1.2
v -1.8 1.4 1.1
v -1.7 1.4 1.1
v -1.8 1.4 0.2
v -1.7 1.4 0.2
v -1.8 1.4 0.1
v -1.7 1.4 0.1
v -1.8 1.4 0
v -1.7 1.4 0
v -1.8 1.2 1.3
v -0.7 1.2 1.3
v 1 1.2 1.3
v 2 1.2 1.3
v -1.8 1.2 1.2
v -1.7 1.2 1.2
v -1.8 1.2 1.1
v -1.7 1.2 1.1
v -1.8 1.2 0.2
v -1.7 1.2 0.2
v -1.8 1.2 0.1
v -1.7 1.2 0.1
v -1.8 1.2 0
v -0.7 1.2 0
v 1 1.2 0
v 2 1.2 0
v 0.7 1.3 1.5
v 0.8 1.3 1.5
v 0.7 1.3 1.3
v 0.8 1.3 1.3
v 0.9 1.3 1.3
v 1 1.3 1.3
v 0.6 1.3 0
v 0.7 1.3 0
v 0.9 1.3 0
v 1 1.3 0
v 0.6 1.3 -0.2
v 0.7 1.3 -0.2
v -1.8 1.5 1.3
v -1.7 1.5 1.3
v -0.7 1.5 1.3
v -0.6 1.5 1.3
v 0.8 1.5 1.3
v 0.9 1.5 1.3
v -1.8 1.5 0
v -1.7 1.5 0
v -0.7 1.5 0
v -0.6 1.5 0
v 0.8 1.5 0
v 0.9 1.5 0
v -0.6 1.6 1.3
v 0.8 1.6 1.3
v -0.6 1.6 0
v 0.8 1.6 0

# faces
f 7/4/1 2/4/1 1/4/1
f 7/3/1 3/3/1 2/3/1
f 8/4/1 4/4/1 3/4/1
f 8/3/1 3/3/1 7/3/1
f 9/3/1 5/3/1 4/3/1
f 9/4/1 4/4/1 8/4/1
f 10/4/1 6/4/1 5/4/1
f 10/3/1 5/3/1 9/3/1
f 11/4/1 9/4/1 8/4/1
f 11/4/1 8/4/1 7/4/1
f 11/4/1 10/4/1 9/4/1
f 11/4/1 7/4/1 1/4/1
f 12/4/1 10/4/1 11/4/1
f 13/4/1 10/4/1 12/4/1
f 14/4/1 6/4/1 10/4/1
f 14/4/1 10/4/1 13/4/1
f 15/4/1 11/4/1 1/4/1
f 15/2/1 12/2/1 11/2/1
f 16/4/1 13/4/1 12/4/1
f 16/2/1 12/2/1 15/2/1
f 17/2/1 14/2/1 13/2/1
f 17/4/1 13/4/1 16/4/1
f 18/4/1 6/4/1 14/4/1
f 18/2/1 14/2/1 17/2/1
f 19/4/1 15/4/1 1/4/1
f 19/4/1 17/4/1 16/4/1
f 19/4/1 18/4/1 17/4/1
f 19/4/1 16/4/1 15/4/1
f 20/4/1 18/4/1 19/4/1
f 21/4/1 18/4/1 20/4/1
f 22/4/1 18/4/1 21/4/1
f 23/4/1 6/4/1 18/4/1
f 23/4/1 18/4/1 22/4/1
f 24/4/1 6/4/1 23/4/1
f 26/5/1 21/5/1 20/5/1
f 27/5/1 21/5/1 26/5/1
f 28/5/1 23/5/1 22/5/1
f 29/5/1 23/5/1 28/5/1
f 31/5/1 27/5/1 26/5/1
f 31/5/1 30/5/1 29/5/1
f 31/5/1 29/5/1 28/5/1
f 31/5/1 28/5/1 27/5/1
f 31/5/1 26/5/1 25/5/1
f 32/5/1 30/5/1 31/5/1
f 35/4/1 34/4/1 33/4/1
f 36/4/1 34/4/1 35/4/1
f 39/4/1 38/4/1 37/4/1
f 40/4/1 38/4/1 39/4/1
f 43/4/1 42/4/1 41/4/1
f 44/4/1 42/4/1 43/4/1
f 47/3/1 46/3/1 45/3/1
f 48/3/1 46/3/1 47/3/1
f 51/3/1 50/3/1 49/3/1
f 52/3/1 50/3/1 51/3/1
f 55/4/1 54/4/1 53/4/1
f 56/4/1 54/4/1 55/4/1
f 57/5/2 58/5/2 62/5/2
f 62/5/2 58/5/2 63/5/2
f 59/5/2 60/5/2 64/5/2
f 64/5/2 60/5/2 65/5/2
f 62/5/2 63/5/2 67/5/2
f 65/5/2 66/5/2 67/5/2
f 64/5/2 65/5/2 67/5/2
f 63/5/2 64/5/2 67/5/2
f 61/5/2 62/5/2 67/5/2
f 67/5/2 66/5/2 68/5/2
f 69/4/2 70/4/2 71/4/2
f 71/4/2 70/4/2 72/4/2
f 73/3/2 74/3/2 75/3/2
f 75/3/2 74/3/2 76/3/2
f 77/3/2 78/3/2 79/3/2
f 79/3/2 78/3/2 80/3/2
f 81/4/2 82/4/2 83/4/2
f 83/4/2 82/4/2 84/4/2
f 85/4/2 86/4/2 87/4/2
f 87/4/2 86/4/2 88/4/2
f 89/4/2 90/4/2 91/4/2
f 91/4/2 90/4/2 92/4/2
f 93/4/2 94/4/2 95/4/2
f 95/4/2 94/4/2 96/4/2
f 97/4/2 98/4/2 99/4/2
f 99/4/2 98/4/2 100/4/2
f 97/4/2 99/4/2 101/4/2
f 99/5/2 100/5/2 101/5/2
f 100/4/2 98/4/2 102/4/2
f 101/5/2 100/5/2 102/5/2
f 97/4/2 101/4/2 103/4/2
f 101/4/2 102/4/2 103/4/2
f 103/4/2 102/4/2 104/4/2
f 102/4/2 98/4/2 105/4/2
f 104/4/2 102/4/2 105/4/2
f 105/4/2 98/4/2 106/4/2
f 103/1/2 104/1/2 107/1/2
f 97/4/2 103/4/2 107/4/2
f 104/4/2 105/4/2 108/4/2
f 107/1/2 104/1/2 108/1/2
f 105/1/2 106/1/2 109/1/2
f 108/4/2 105/4/2 109/4/2
f 106/4/2 98/4/2 110/4/2
f 109/1/2 106/1/2 110/1/2
f 108/4/2 109/4/2 111/4/2
f 107/4/2 108/4/2 111/4/2
f 109/4/2 110/4/2 111/4/2
f 97/4/2 107/4/2 111/4/2
f 110/4/2 98/4/2 112/4/2
f 111/4/2 110/4/2 112/4/2
f 115/3/3 114/3/3 113/3/3
f 116/3/3 114/3/3 115/3/3
f 121/5/3 120/5/3 119/5/3
f 122/5/3 120/5/3 121/5/3
f 123/4/3 118/4/3 117/4/3
f 124/4/3 118/4/3 123/4/3
f 126/4/3 118/4/3 124/4/3
f 127/4/3 118/4/3 126/4/3
f 127/4/3 126/4/3 125/4/3
f 129/4/3 128/4/3 127/4/3
f 131/4/3 129/4/3 127/4/3
f 131/4/3 130/4/3 129/4/3
f 131/4/3 127/4/3 125/4/3
f 132/4/3 130/4/3 131/4/3
f 133/4/3 131/4/3 125/4/3
f 134/4/3 130/4/3 132/4/3
f 135/4/3 130/4/3 134/4/3
f 136/4/3 130/4/3 135/4/3
f 137/4/3 134/4/3 133/4/3
f 137/4/3 135/4/3 134/4/3
f 138/4/3 135/4/3 137/4/3
f 139/4/3 137/4/3 133/4/3
f 140/4/3 137/4/3 139/4/3
f 141/4/3 133/4/3 125/4/3
f 141/4/3 139/4/3 133/4/3
f 142/4/3 139/4/3 141/4/3
f 144/4/3 139/4/3 142/4/3
f 145/4/3 144/4/3 143/4/3
f 146/4/3 139/4/3 144/4/3
f 146/4/3 144/4/3 145/4/3
f 149/5/3 148/5/3 147/5/3
f 150/5/3 148/5/3 149/5/3
f 153/5/3 152/5/3 151/5/3
f 154/5/3 152/5/3 153/5/3
f 155/5/4 156/5/4 157/5/4
f 157/5/4 156/5/4 158/5/4
f 159/5/4 160/5/4 161/5/4
f 161/5/4 160/5/4 162/5/4
f 165/5/4 166/5/4 167/5/4
f 167/5/4 166/5/4 168/5/4
f 163/4/4 164/4/4 169/4/4
f 169/4/4 164/4/4 170/4/4
f 170/4/4 164/4/4 172/4/4
f 172/4/4 164/4/4 173/4/4
f 171/4/4 172/4/4 173/4/4
f 173/4/4 174/4/4 175/4/4
f 173/4/4 175/4/4 177/4/4
f 175/4/4 176/4/4 177/4/4
f 171/4/4 173/4/4 177/4/4
f 177/4/4 176/4/4 178/4/4
f 171/4/4 177/4/4 179/4/4
f 178/4/4 176/4/4 180/4/4
f 180/4/4 176/4/4 181/4/4
f 179/4/4 180/4/4 181/4/4
f 181/4/4 176/4/4 182/4/4
f 179/4/4 181/4/4 183/4/4
f 183/4/4 181/4/4 184/4/4
f 179/4/4 183/4/4 185/4/4
f 185/4/4 183/4/4 186/4/4
f 171/4/4 179/4/4 187/4/4
f 179/4/4 185/4/4 187/4/4
f 187/4/4 185/4/4 188/4/4
f 188/4/4 185/4/4 190/4/4
f 189/4/4 190/4/4 191/4/4
f 190/4/4 185/4/4 192/4/4
f 191/4/4 190/4/4 192/4/4
f 193/3/4 194/3/4 195/3/4
f 195/3/4 194/3/4 196/3/4
f 203/4/5 198/4/5 197/4/5
f 204/4/5 198/4/5 203/4/5
f 205/3/5 204/3/5 203/3/5
f 206/4/5 198/4/5 204/4/5
f 206/3/5 204/3/5 205/3/5
f 207/4/5 206/4/5 205/4/5
f 208/4/5 198/4/5 206/4/5
f 208/4/5 206/4/5 207/4/5
f 209/3/5 208/3/5 207/3/5
f 210/4/5 198/4/5 208/4/5
f 210/3/5 208/3/5 209/3/5
f 211/4/5 210/4/5 209/4/5
f 212/4/5 198/4/5 210/4/5
f 212/4/5 210/4/5 211/4/5
f 213/4/5 200/4/5 199/4/5
f 214/4/5 200/4/5 213/4/5
f 215/4/5 202/4/5 201/4/5
f 216/4/5 202/4/5 215/4/5
f 221/4/5 218/4/5 217/4/5
f 222/4/5 218/4/5 221/4/5
f 223/4/5 220/4/5 219/4/5
f 224/4/5 220/4/5 223/4/5
f 227/3/5 226/3/5 225/3/5
f 228/3/5 226/3/5 227/3/5
f 231/3/5 230/3/5 229/3/5
f 232/3/5 230/3/5 231/3/5
f 235/5/5 234/5/5 233/5/5
f 236/5/5 234/5/5 235/5/5
f 239/5/5 238/5/5 237/5/5
f 240/5/5 238/5/5 239/5/5
f 243/5/5 242/5/5 241/5/5
f 244/5/5 242/5/5 243/5/5
f 245/4/6 246/4/6 249/4/6
f 249/4/6 246/4/6 250/4/6
f 250/4/6 246/4/6 252/4/6
f 251/4/6 252/4/6 253/4/6
f 252/4/6 246/4/6 254/4/6
f 253/4/6 252/4/6 254/4/6
f 254/4/6 246/4/6 256/4/6
f 255/4/6 256/4/6 257/4/6
f 256/4/6 246/4/6 258/4/6
f 257/4/6 256/4/6 258/4/6
f 247/4/6 248/4/6 259/4/6
f 259/4/6 248/4/6 260/4/6
f 261/3/6 262/3/6 263/3/6
f 263/3/6 262/3/6 264/3/6
f 265/4/6 266/4/6 269/4/6
f 269/4/6 266/4/6 270/4/6
f 267/3/6 268/3/6 271/3/6
f 271/3/6 268/3/6 272/3/6
f 273/5/6 274/5/6 279/5/6
f 279/5/6 274/5/6 280/5/6
f 275/4/6 276/4/6 281/4/6
f 281/4/6 276/4/6 282/4/6
f 277/4/6 278/4/6 283/4/6
f 283/4/6 278/4/6 284/4/6
f 285/4/6 286/4/6 287/4/6
f 287/4/6 286/4/6 288/4/6
